HIERARCHY
ROOT hip
{
  OFFSET 0 0 0
  CHANNELS 6 Xposition Yposition Zposition Zrotation Yrotation Xrotation
  JOINT abdomen
  {
    OFFSET 0 20.6881 -0.73152
    CHANNELS 3 Zrotation Xrotation Yrotation
    JOINT chest
    {
      OFFSET 0 11.7043 -0.48768
      CHANNELS 3 Zrotation Xrotation Yrotation
      JOINT neck
      {
        OFFSET 0 22.1894 -2.19456
        CHANNELS 3 Zrotation Xrotation Yrotation
        JOINT head
        {
          OFFSET -0.24384 7.07133 1.2192
          CHANNELS 3 Zrotation Xrotation Yrotation
          JOINT leftEye
          {
            OFFSET 4.14528 8.04674 8.04672
            CHANNELS 3 Zrotation Xrotation Yrotation
            End Site
            {
              OFFSET 1 0 0
            }
          }
          JOINT rightEye
          {
            OFFSET -3.6576 8.04674 8.04672
            CHANNELS 3 Zrotation Xrotation Yrotation
            End Site
            {
              OFFSET 1 0 0
            }
          }
        }
      }
      JOINT rCollar
      {
        OFFSET -2.68224 19.2634 -4.8768
        CHANNELS 3 Zrotation Xrotation Yrotation
        JOINT rShldr
        {
          OFFSET -8.77824 -1.95073 1.46304
          CHANNELS 3 Zrotation Xrotation Yrotation
          JOINT rForeArm
          {
            OFFSET -28.1742 -1.7115 0.48768
            CHANNELS 3 Zrotation Xrotation Yrotation
            JOINT rHand
            {
              OFFSET -22.5879 0.773209 7.07136
              CHANNELS 3 Zrotation Xrotation Yrotation
              JOINT rThumb1
              {
                OFFSET -1.2192 -0.487915 3.41376
                CHANNELS 3 Zrotation Xrotation Yrotation
                JOINT rThumb2
                {
                  OFFSET -3.37035 -0.52449 3.41376
                  CHANNELS 3 Zrotation Xrotation Yrotation
                  End Site
                  {
                    OFFSET -1.78271 -1.18214 1.43049
                  }
                }
              }
              JOINT rIndex1
              {
                OFFSET -7.75947 0.938293 5.60832
                CHANNELS 3 Zrotation Xrotation Yrotation
                JOINT rIndex2
                {
                  OFFSET -2.54057 -0.884171 1.56538
                  CHANNELS 3 Zrotation Xrotation Yrotation
                  End Site
                  {
                    OFFSET -1.62519 -0.234802 1.16502
                  }
                }
              }
              JOINT rMid1
              {
                OFFSET -8.24714 1.18213 3.41376
                CHANNELS 3 Zrotation Xrotation Yrotation
                JOINT rMid2
                {
                  OFFSET -3.10165 -0.590103 1.0647
                  CHANNELS 3 Zrotation Xrotation Yrotation
                  End Site
                  {
                    OFFSET -2.48547 -0.328903 0.83742
                  }
                }
              }
              JOINT rRing1
              {
                OFFSET -8.82822 0.546677 1.51678
                CHANNELS 3 Zrotation Xrotation Yrotation
                JOINT rRing2
                {
                  OFFSET -2.60934 -0.819778 -0.0198488
                  CHANNELS 3 Zrotation Xrotation Yrotation
                  End Site
                  {
                    OFFSET -2.33842 -0.294052 0.168128
                  }
                }
              }
              JOINT rPinky1
              {
                OFFSET -8.27202 -0.0477905 -0.4584
                CHANNELS 3 Zrotation Xrotation Yrotation
                JOINT rPinky2
                {
                  OFFSET -1.82734 -0.647385 -0.700984
                  CHANNELS 3 Zrotation Xrotation Yrotation
                  End Site
                  {
                    OFFSET -1.69225 -0.51767 -0.607171
                  }
                }
              }
            }
          }
        }
      }
      JOINT lCollar
      {
        OFFSET 2.68224 19.2634 -4.8768
        CHANNELS 3 Zrotation Xrotation Yrotation
        JOINT lShldr
        {
          OFFSET 8.77824 -1.95073 1.46304
          CHANNELS 3 Zrotation Xrotation Yrotation
          JOINT lForeArm
          {
            OFFSET 28.1742 -1.7115 0.48768
            CHANNELS 3 Zrotation Xrotation Yrotation
            JOINT lHand
            {
              OFFSET 22.5879 0.773209 7.07136
              CHANNELS 3 Zrotation Xrotation Yrotation
              JOINT lThumb1
              {
                OFFSET 1.2192 -0.487915 3.41376
                CHANNELS 3 Zrotation Xrotation Yrotation
                JOINT lThumb2
                {
                  OFFSET 3.37035 -0.52449 3.41376
                  CHANNELS 3 Zrotation Xrotation Yrotation
                  End Site
                  {
                    OFFSET 1.78271 -1.18214 1.43049
                  }
                }
              }
              JOINT lIndex1
              {
                OFFSET 7.75947 0.938293 5.60832
                CHANNELS 3 Zrotation Xrotation Yrotation
                JOINT lIndex2
                {
                  OFFSET 2.54057 -0.884171 1.56538
                  CHANNELS 3 Zrotation Xrotation Yrotation
                  End Site
                  {
                    OFFSET 1.62519 -0.234802 1.16502
                  }
                }
              }
              JOINT lMid1
              {
                OFFSET 8.24714 1.18213 3.41376
                CHANNELS 3 Zrotation Xrotation Yrotation
                JOINT lMid2
                {
                  OFFSET 3.10165 -0.590103 1.0647
                  CHANNELS 3 Zrotation Xrotation Yrotation
                  End Site
                  {
                    OFFSET 2.48547 -0.328903 0.83742
                  }
                }
              }
              JOINT lRing1
              {
                OFFSET 8.82822 0.546677 1.51678
                CHANNELS 3 Zrotation Xrotation Yrotation
                JOINT lRing2
                {
                  OFFSET 2.60934 -0.819778 -0.0198488
                  CHANNELS 3 Zrotation Xrotation Yrotation
                  End Site
                  {
                    OFFSET 2.33842 -0.294052 0.168128
                  }
                }
              }
              JOINT lPinky1
              {
                OFFSET 8.27202 -0.0477905 -0.4584
                CHANNELS 3 Zrotation Xrotation Yrotation
                JOINT lPinky2
                {
                  OFFSET 1.82734 -0.647385 -0.700984
                  CHANNELS 3 Zrotation Xrotation Yrotation
                  End Site
                  {
                    OFFSET 1.69225 -0.51767 -0.607171
                  }
                }
              }
            }
          }
        }
      }
    }
  }
  JOINT rButtock
  {
    OFFSET -8.77824 4.35084 1.2192
    CHANNELS 3 Zrotation Xrotation Yrotation
    JOINT rThigh
    {
      OFFSET 0 -1.70687 -2.19456
      CHANNELS 3 Zrotation Xrotation Yrotation
      JOINT rShin
      {
        OFFSET 0 -36.8199 0.73152
        CHANNELS 3 Zrotation Xrotation Yrotation
        JOINT rFoot
        {
          OFFSET 0.73152 -45.1104 -5.12064
          CHANNELS 3 Zrotation Xrotation Yrotation
          End Site
          {
            OFFSET -1.1221 -3.69964 12.103
          }
        }
      }
    }
  }
  JOINT lButtock
  {
    OFFSET 8.77824 4.35084 1.2192
    CHANNELS 3 Zrotation Xrotation Yrotation
    JOINT lThigh
    {
      OFFSET 0 -1.70687 -2.19456
      CHANNELS 3 Zrotation Xrotation Yrotation
      JOINT lShin
      {
        OFFSET 0 -36.8199 0.73152
        CHANNELS 3 Zrotation Xrotation Yrotation
        JOINT lFoot
        {
          OFFSET -0.73152 -45.1104 -5.12064
          CHANNELS 3 Zrotation Xrotation Yrotation
          End Site
          {
            OFFSET 1.1221 -3.69964 12.103
          }
        }
      }
    }
  }
}
MOTION
Frames:	4
Frame Time:	0.00833333
62.5813 78.4725 4.60514 537.421 20.5434 185.484 2.62303 -1.75382 2.71009 -3.25221 1.32346 0.748951 0.859921 5.53717 -35.4831 179.76 23.8739 -13.8 -0.0 0.0 0.0 -0.0 0.0 0.0 -5.95786e-14 -6.31661e-15 4.56854e-13 56.2671 -13.5643 2.97016 -26.0449 -23.5466 56.8612 -2.66577 -41.2194 -7.07393 -4.81658e-10 -1.01727e-10 -6.28279e-11 -8.30139e-10 -1.70287e-10 -1.15798e-10 -4.81653e-10 -1.01728e-10 -6.28374e-11 7.73091 5.47488 0.417314 -4.81659e-10 -1.01726e-10 -6.2838e-11 2.90554 0.965183 0.102902 -4.81652e-10 -1.01726e-10 -6.28359e-11 10.2786 0.731801 0.0259123 -4.8166e-10 -1.01724e-10 -6.28287e-11 2.22167 -0.733487 -0.20892 -5.94973e-14 -6.31795e-15 4.56702e-13 -86.9937 37.9838 16.065 28.2445 -32.3218 -70.9452 1.23631 -29.8789 4.6314 -7.37179e-10 -2.55706e-09 -2.51981e-10 -1.27036e-09 -4.44814e-09 -4.48205e-10 -7.37178e-10 -2.55706e-09 -2.51973e-10 -7.73091 5.47488 -0.417314 -7.37178e-10 -2.55704e-09 -2.51983e-10 -2.90554 0.965183 -0.102902 -7.37184e-10 -2.55706e-09 -2.51985e-10 -10.2786 0.731801 -0.0259123 -7.37173e-10 -2.55706e-09 -2.51996e-10 -2.22167 -0.733487 0.20892 -2.03217e-16 0.0 -3.88251e-19 -3.65968 -26.5823 1.94201 -0.631762 50.409 1.00215 0.291385 -15.0453 2.65196 2.03217e-16 0.0 3.88251e-19 -11.4091 -40.055 3.72909 0.153939 26.0696 -0.158388 1.45677 7.22787 -16.7601
62.1029 78.7925 5.58435 537.848 19.1291 186.189 3.37822 -1.76388 3.00079 -3.19316 1.48106 0.837831 0.899127 5.19142 -35.9499 179.873 24.0511 -14.2687 -0.0 0.0 0.0 -0.0 0.0 0.0 -1.06121e-13 1.77613e-14 3.40492e-13 54.3788 -15.118 3.56674 -25.6751 -22.6245 55.415 -2.80065 -42.0382 -7.27972 1.84894e-12 3.28734e-10 4.23442e-10 -1.18126e-11 5.80139e-10 7.34548e-10 1.85364e-12 3.28732e-10 4.23433e-10 7.73091 5.47488 0.417314 1.84748e-12 3.28735e-10 4.23434e-10 2.90554 0.965183 0.102902 1.85474e-12 3.28736e-10 4.23433e-10 10.2786 0.731801 0.0259123 1.84752e-12 3.28737e-10 4.23439e-10 2.22167 -0.733487 -0.20892 -1.06036e-13 1.77554e-14 3.40308e-13 -87.5034 37.2293 16.4352 28.1991 -31.9534 -70.3605 1.22085 -29.7125 4.60026 -3.72332e-10 -1.83385e-09 -3.04262e-10 -6.38491e-10 -3.16746e-09 -5.29633e-10 -3.72332e-10 -1.83385e-09 -3.04255e-10 -7.73091 5.47488 -0.417314 -3.72329e-10 -1.83381e-09 -3.04263e-10 -2.90554 0.965183 -0.102902 -3.72337e-10 -1.83385e-09 -3.04265e-10 -10.2786 0.731801 -0.0259123 -3.72326e-10 -1.83385e-09 -3.04275e-10 -2.22167 -0.733487 0.20892 -2.03217e-16 0.0 -3.88251e-19 -3.28722 -25.871 0.66464 -0.51347 47.2766 0.945704 -0.842997 -16.6357 -0.650143 2.03217e-16 0.0 3.88251e-19 -10.3721 -40.662 3.46017 0.147493 25.3855 -0.166249 1.23467 6.51699 -16.7663
61.7199 79.1078 6.66409 538.137 17.9968 186.697 4.01325 -1.71214 3.36795 -3.13177 1.62309 0.94784 1.12951 4.7327 -36.5174 -179.938 24.2341 -15.3516 -0.0 0.0 0.0 -0.0 0.0 0.0 -1.23462e-13 5.00976e-14 2.27459e-13 52.6535 -16.5982 4.11543 -25.2897 -21.7318 53.9952 -2.91065 -42.6688 -7.44334 2.71387e-10 7.03171e-10 8.30293e-10 4.40015e-10 1.22983e-09 1.44171e-09 2.71392e-10 7.0317e-10 8.30284e-10 7.73091 5.47488 0.417314 2.71386e-10 7.03172e-10 8.30287e-10 2.90554 0.965183 0.102902 2.71393e-10 7.03173e-10 8.30285e-10 10.2786 0.731801 0.0259123 2.71386e-10 7.03175e-10 8.3029e-10 2.22167 -0.733487 -0.20892 -1.23387e-13 5.00908e-14 2.27261e-13 -87.8417 36.5399 16.8629 28.1567 -31.6468 -69.8853 1.21367 -29.6345 4.5857 -1.66962e-10 -1.4384e-09 -4.52612e-10 -2.79464e-10 -2.45419e-09 -7.81111e-10 -1.66964e-10 -1.43841e-09 -4.52606e-10 -7.73091 5.47488 -0.417314 -1.66959e-10 -1.43835e-09 -4.52612e-10 -2.90554 0.965183 -0.102902 -1.66968e-10 -1.4384e-09 -4.52615e-10 -10.2786 0.731801 -0.0259123 -1.66956e-10 -1.4384e-09 -4.52625e-10 -2.22167 -0.733487 0.20892 -2.03217e-16 0.0 -3.88251e-19 -2.83245 -25.3656 -0.0270677 -0.420578 44.5178 0.912762 -1.94079 -17.8262 -3.49359 2.03217e-16 0.0 3.88251e-19 -9.33063 -41.4223 3.19222 0.149303 26.0432 -0.199636 0.867907 5.41309 -15.6709
61.3578 79.3839 7.74846 538.41 16.9163 187.233 4.45459 -1.52894 3.85251 -3.06855 1.73722 1.09039 1.58426 4.09635 -37.2143 -179.622 24.3645 -17.1258 -0.0 0.0 0.0 -0.0 0.0 0.0 -9.52183e-14 1.09015e-13 1.02786e-13 51.0988 -18.0093 4.64291 -24.8905 -20.87 52.5314 -2.9863 -43.0796 -7.55305 1.98555e-10 1.09663e-09 1.22092e-09 3.01855e-10 1.90606e-09 2.11052e-09 1.9856e-10 1.09663e-09 1.22091e-09 7.73091 5.47488 0.417314 1.98554e-10 1.09663e-09 1.22092e-09 2.90554 0.965183 0.102902 1.98559e-10 1.09663e-09 1.22091e-09 10.2786 0.731801 0.0259123 1.98553e-10 1.09663e-09 1.22092e-09 2.22167 -0.733487 -0.20892 -9.51771e-14 1.09015e-13 1.02604e-13 -87.9573 35.9559 17.3889 28.127 -31.4443 -69.5731 1.21825 -29.6842 4.59498 -2.30153e-10 -1.62366e-09 -8.56445e-10 -3.77513e-10 -2.73734e-09 -1.48068e-09 -2.30157e-10 -1.62365e-09 -8.56438e-10 -7.73091 5.47488 -0.417314 -2.30152e-10 -1.62361e-09 -8.56445e-10 -2.90554 0.965183 -0.102902 -2.30159e-10 -1.62365e-09 -8.56449e-10 -10.2786 0.731801 -0.0259123 -2.30147e-10 -1.62366e-09 -8.56459e-10 -2.22167 -0.733487 0.20892 -2.03217e-16 0.0 -3.88251e-19 -2.24381 -25.1258 0.183382 -0.353637 42.2414 0.909856 -2.86358 -18.5965 -5.72778 2.03217e-16 0.0 3.88251e-19 -8.36387 -42.4429 2.80094 0.169321 28.5512 -0.273671 0.354071 3.48411 -12.8688
